<mxfile host="app.diagrams.net" modified="2021-04-02T15:09:06.239Z" agent="5.0 (Macintosh; Intel Mac OS X 10_15_6) AppleWebKit/605.1.15 (KHTML, like Gecko) Version/14.0.3 Safari/605.1.15" etag="IJ1rjCRdnYeQBJ4Y-otO" version="14.5.4" type="github">
  <diagram id="ioZmp0viJUDu1Q_-vi5b" name="Page-1">
    <mxGraphModel dx="2066" dy="1185" grid="1" gridSize="10" guides="1" tooltips="1" connect="1" arrows="1" fold="1" page="1" pageScale="1" pageWidth="1169" pageHeight="1654" math="0" shadow="0">
      <root>
        <mxCell id="0" />
        <mxCell id="1" parent="0" />
        <mxCell id="b8ftmv6gFkgji3_youqB-1" value="PLC 0&lt;br&gt;připojeno" style="rounded=0;whiteSpace=wrap;html=1;" vertex="1" parent="1">
          <mxGeometry x="240" y="160" width="80" height="80" as="geometry" />
        </mxCell>
        <mxCell id="b8ftmv6gFkgji3_youqB-5" value="" style="endArrow=classic;html=1;" edge="1" parent="1">
          <mxGeometry width="50" height="50" relative="1" as="geometry">
            <mxPoint x="320" y="200" as="sourcePoint" />
            <mxPoint x="360" y="200" as="targetPoint" />
          </mxGeometry>
        </mxCell>
        <mxCell id="b8ftmv6gFkgji3_youqB-6" value="" style="endArrow=classic;html=1;" edge="1" parent="1">
          <mxGeometry width="50" height="50" relative="1" as="geometry">
            <mxPoint x="400" y="199.5" as="sourcePoint" />
            <mxPoint x="440" y="199.5" as="targetPoint" />
          </mxGeometry>
        </mxCell>
        <mxCell id="b8ftmv6gFkgji3_youqB-7" value="PLC N&lt;br&gt;připojeno" style="rounded=0;whiteSpace=wrap;html=1;" vertex="1" parent="1">
          <mxGeometry x="440" y="160" width="80" height="80" as="geometry" />
        </mxCell>
        <mxCell id="b8ftmv6gFkgji3_youqB-8" value="5&lt;sup&gt;&lt;font style=&quot;font-size: 15px&quot;&gt;.&lt;/font&gt;&lt;/sup&gt;N s" style="text;html=1;align=center;verticalAlign=middle;resizable=0;points=[];autosize=1;" vertex="1" parent="1">
          <mxGeometry x="360" y="165" width="40" height="30" as="geometry" />
        </mxCell>
        <mxCell id="b8ftmv6gFkgji3_youqB-9" value="&lt;font style=&quot;font-size: 20px&quot;&gt;&lt;sup&gt;...&lt;/sup&gt;&lt;/font&gt;" style="text;html=1;align=center;verticalAlign=middle;resizable=0;points=[];autosize=1;" vertex="1" parent="1">
          <mxGeometry x="365" y="185" width="30" height="30" as="geometry" />
        </mxCell>
        <mxCell id="b8ftmv6gFkgji3_youqB-10" value="PLC 0&lt;br&gt;připojeno" style="rounded=0;whiteSpace=wrap;html=1;" vertex="1" parent="1">
          <mxGeometry x="800" y="40" width="80" height="80" as="geometry" />
        </mxCell>
        <mxCell id="b8ftmv6gFkgji3_youqB-11" value="PLC 1&lt;br&gt;připojeno" style="rounded=0;whiteSpace=wrap;html=1;" vertex="1" parent="1">
          <mxGeometry x="800" y="160" width="80" height="80" as="geometry" />
        </mxCell>
        <mxCell id="b8ftmv6gFkgji3_youqB-12" value="PLC N&lt;br&gt;připojeno" style="rounded=0;whiteSpace=wrap;html=1;" vertex="1" parent="1">
          <mxGeometry x="800" y="280" width="80" height="80" as="geometry" />
        </mxCell>
        <mxCell id="b8ftmv6gFkgji3_youqB-13" value="&lt;font style=&quot;font-size: 20px&quot;&gt;&lt;sup&gt;...&lt;/sup&gt;&lt;/font&gt;" style="text;html=1;align=center;verticalAlign=middle;resizable=0;points=[];autosize=1;rotation=-90;" vertex="1" parent="1">
          <mxGeometry x="825" y="250" width="30" height="30" as="geometry" />
        </mxCell>
        <mxCell id="b8ftmv6gFkgji3_youqB-15" value="" style="endArrow=classic;html=1;entryX=0;entryY=0.5;entryDx=0;entryDy=0;" edge="1" parent="1" target="b8ftmv6gFkgji3_youqB-10">
          <mxGeometry width="50" height="50" relative="1" as="geometry">
            <mxPoint x="680" y="200" as="sourcePoint" />
            <mxPoint x="730" y="150" as="targetPoint" />
          </mxGeometry>
        </mxCell>
        <mxCell id="b8ftmv6gFkgji3_youqB-18" value="5 s" style="edgeLabel;html=1;align=center;verticalAlign=middle;resizable=0;points=[];" vertex="1" connectable="0" parent="b8ftmv6gFkgji3_youqB-15">
          <mxGeometry x="0.0667" y="1" relative="1" as="geometry">
            <mxPoint x="-1" as="offset" />
          </mxGeometry>
        </mxCell>
        <mxCell id="b8ftmv6gFkgji3_youqB-16" value="" style="endArrow=classic;html=1;entryX=0;entryY=0.5;entryDx=0;entryDy=0;" edge="1" parent="1" target="b8ftmv6gFkgji3_youqB-11">
          <mxGeometry width="50" height="50" relative="1" as="geometry">
            <mxPoint x="680" y="200" as="sourcePoint" />
            <mxPoint x="810" y="90" as="targetPoint" />
          </mxGeometry>
        </mxCell>
        <mxCell id="b8ftmv6gFkgji3_youqB-19" value="5s" style="edgeLabel;html=1;align=center;verticalAlign=middle;resizable=0;points=[];" vertex="1" connectable="0" parent="b8ftmv6gFkgji3_youqB-16">
          <mxGeometry relative="1" as="geometry">
            <mxPoint as="offset" />
          </mxGeometry>
        </mxCell>
        <mxCell id="b8ftmv6gFkgji3_youqB-17" value="" style="endArrow=classic;html=1;entryX=0;entryY=0.5;entryDx=0;entryDy=0;" edge="1" parent="1" target="b8ftmv6gFkgji3_youqB-12">
          <mxGeometry width="50" height="50" relative="1" as="geometry">
            <mxPoint x="680" y="199.5" as="sourcePoint" />
            <mxPoint x="800" y="199.5" as="targetPoint" />
          </mxGeometry>
        </mxCell>
        <mxCell id="b8ftmv6gFkgji3_youqB-20" value="5 s" style="edgeLabel;html=1;align=center;verticalAlign=middle;resizable=0;points=[];" vertex="1" connectable="0" parent="b8ftmv6gFkgji3_youqB-17">
          <mxGeometry x="0.002" y="1" relative="1" as="geometry">
            <mxPoint y="5.98" as="offset" />
          </mxGeometry>
        </mxCell>
        <mxCell id="b8ftmv6gFkgji3_youqB-24" style="edgeStyle=orthogonalEdgeStyle;rounded=0;orthogonalLoop=1;jettySize=auto;html=1;exitX=1;exitY=0.5;exitDx=0;exitDy=0;entryX=0;entryY=0.5;entryDx=0;entryDy=0;" edge="1" parent="1" source="b8ftmv6gFkgji3_youqB-21" target="b8ftmv6gFkgji3_youqB-1">
          <mxGeometry relative="1" as="geometry" />
        </mxCell>
        <mxCell id="b8ftmv6gFkgji3_youqB-27" value="5 s" style="edgeLabel;html=1;align=center;verticalAlign=middle;resizable=0;points=[];" vertex="1" connectable="0" parent="b8ftmv6gFkgji3_youqB-24">
          <mxGeometry x="-0.35" relative="1" as="geometry">
            <mxPoint x="14" y="-20" as="offset" />
          </mxGeometry>
        </mxCell>
        <mxCell id="b8ftmv6gFkgji3_youqB-21" value="&lt;font style=&quot;font-size: 24px&quot;&gt;Start&lt;/font&gt;" style="text;html=1;strokeColor=none;fillColor=none;align=center;verticalAlign=middle;whiteSpace=wrap;rounded=0;" vertex="1" parent="1">
          <mxGeometry x="120" y="190" width="40" height="20" as="geometry" />
        </mxCell>
        <mxCell id="b8ftmv6gFkgji3_youqB-26" value="&lt;font style=&quot;font-size: 24px&quot;&gt;Start&lt;/font&gt;" style="text;html=1;strokeColor=none;fillColor=none;align=center;verticalAlign=middle;whiteSpace=wrap;rounded=0;" vertex="1" parent="1">
          <mxGeometry x="630" y="190" width="40" height="20" as="geometry" />
        </mxCell>
      </root>
    </mxGraphModel>
  </diagram>
</mxfile>
